#!OML:ASF F:\VICON\USERDATA\INSTALL\rory3\rory3.ASF
:FULLY-SPECIFIED
:DEGREES
83
root 1.34252 16.0932 -30.5948 31.6229 25.0571 0.760945
lowerback 6.87489 -3.92938 6.93028
upperback -4.17165 -3.91668 7.54492
thorax -8.26842 -2.03686 4.72887
lowerneck -12.6006 -5.48195 -2.71969
upperneck 25.1153 -8.96343 7.25626
head 10.602 -3.49977 1.88542
rclavicle 4.37326e-014 -1.43125e-014
rhumerus 43.4938 -11.4979 -25.849
rradius 39.5196
rwrist -17.1193
rhand -4.30695 10.5867
rfingers 7.12502
rthumb 21.4592 -18.2447
lclavicle 4.37326e-014 -1.43125e-014
lhumerus 80.3569 6.85839 41.0743
lradius 25.5297
lwrist -28.5549
lhand -3.74888 19.2831
lfingers 7.12502
lthumb 21.9951 48.0525
rfemur -101.086 -35.9962 80.2971
rtibia 44.0948
rfoot 17.7346 -9.60845
rtoes 61.0902
lfemur -40.8175 -8.44954 -22.3807
ltibia 37.2042
lfoot -33.637 19.9722
ltoes -31.7996
84
root 1.33983 16.0754 -30.5333 32.3574 25.8265 1.11866
lowerback 6.95809 -3.96869 7.62904
upperback -3.98455 -3.87756 7.74421
thorax -8.15762 -2.04311 4.54857
lowerneck -12.9665 -5.87929 -3.39002
upperneck 24.8985 -9.67386 8.47763
head 10.7468 -3.73927 2.32387
rclavicle 7.95139e-014 1.11319e-014
rhumerus 42.1184 -10.6876 -25.3284
rradius 39.4449
rwrist -18.0742
rhand -5.01615 10.2048
rfingers 7.12502
rthumb 20.7779 -18.7027
lclavicle 7.95139e-014 1.11319e-014
lhumerus 80.8497 5.93809 41.9882
lradius 24.8863
lwrist -29.2141
lhand -3.79092 18.5229
lfingers 7.12502
lthumb 21.9547 47.2971
rfemur -102.585 -36.255 81.8934
rtibia 44.2719
rfoot 18.7326 -7.81678
rtoes 61.0649
lfemur -41.2177 -8.3764 -22.4709
ltibia 37.0769
lfoot -33.3832 19.6236
ltoes -32.2104
85
root 1.32051 16.0713 -30.4419 32.5104 26.9514 1.91988
lowerback 7.64217 -4.18777 7.66779
upperback -3.71135 -4.06596 8.0926
thorax -8.23724 -2.11801 4.97545
lowerneck -12.7961 -6.12695 -3.15827
upperneck 24.0574 -9.89461 8.12106
head 10.3857 -3.89004 2.12554
rclavicle -4.77083e-015 -2.70347e-014
rhumerus 40.7807 -9.66292 -24.5951
rradius 39.3781
rwrist -19.2155
rhand -5.76556 9.69264
rfingers 7.12502
rthumb 20.0577 -19.292
lclavicle -4.77083e-015 -2.70347e-014
lhumerus 81.1353 4.89735 42.9876
lradius 24.3666
lwrist -30.3519
lhand -4.11955 17.8768
lfingers 7.12502
lthumb 21.6392 46.6876
rfemur -103.99 -37.5715 83.3192
rtibia 44.4578
rfoot 19.6449 -5.34088
rtoes 60.9034
lfemur -40.6781 -8.3562 -22.8542
ltibia 36.9925
lfoot -32.8392 19.4255
ltoes -34.5096
86
root 1.3532 16.0642 -30.3841 33.3668 28.7734 2.08293
lowerback 7.27811 -4.60121 9.66998
upperback -3.44904 -4.41396 8.62268
thorax -7.87421 -2.35825 4.46205
lowerneck -14.5285 -6.29256 -2.84467
upperneck 23.984 -9.98435 7.34245
head 10.6373 -3.9429 1.73426
rclavicle -5.56597e-014 1.59028e-014
rhumerus 40.8738 -10.1234 -25.8761
rradius 38.4543
rwrist -18.4981
rhand -5.59995 9.8797
rfingers 7.12502
rthumb 20.2169 -19.0882
lclavicle -5.56597e-014 1.59028e-014
lhumerus 81.3843 4.51206 43.5639
lradius 24.0381
lwrist -31.4497
lhand -5.13867 18.4658
lfingers 7.12502
lthumb 20.6602 47.3862
rfemur -106.456 -38.1113 86.3771
rtibia 44.3655
rfoot 20.4047 -2.28237
rtoes 60.3372
lfemur -41.5314 -8.60784 -22.4603
ltibia 37.2875
lfoot -32.5852 19.0532
ltoes -37.2663
87
root 1.33973 16.0333 -30.3602 34.6002 29.4622 2.80795
lowerback 7.54643 -4.58545 10.0898
upperback -3.46075 -4.26722 8.89988
thorax -8.06318 -2.29551 4.54662
lowerneck -15.0398 -6.55819 -2.58081
upperneck 23.5431 -10.3034 7.05788
head 10.5612 -4.09613 1.5284
rclavicle 1.11319e-014 -5.40694e-014
rhumerus 40.8272 -10.7063 -27.2031
rradius 36.8603
rwrist -17.47
rhand -5.58914 10.2288
rfingers 7.12502
rthumb 20.2273 -18.7381
lclavicle 1.11319e-014 -5.40694e-014
lhumerus 81.3762 3.60869 41.8829
lradius 24.132
lwrist -29.904
lhand -5.84112 18.886
lfingers 7.12502
lthumb 19.9851 47.8783
rfemur -108.406 -37.7201 88.0519
rtibia 44.57
rfoot 20.3343 0.860766
rtoes 59.6236
lfemur -42.4555 -8.92628 -22.6976
ltibia 37.1383
lfoot -32.1664 19.1248
ltoes -39.0726
88
root 1.3589 15.9614 -30.3865 37.2577 29.8457 2.61708
lowerback 6.11473 -4.27185 11.6559
upperback -3.92327 -3.83004 9.34024
thorax -7.84032 -2.14985 4.03031
lowerneck -14.7436 -6.74594 -2.84354
upperneck 22.6331 -10.4827 7.32397
head 10.2155 -4.20937 1.64853
rclavicle 1.90833e-014 -6.52014e-014
rhumerus 40.8182 -10.838 -28.185
rradius 35.5869
rwrist -16.8658
rhand -5.40444 10.2246
rfingers 7.12502
rthumb 20.4048 -18.7233
lclavicle 1.90833e-014 -6.52014e-014
lhumerus 80.9713 2.93117 39.4365
lradius 24.5041
lwrist -27.9492
lhand -5.95729 19.315
lfingers 7.12502
lthumb 19.8734 48.3189
rfemur -110.45 -34.8694 90.4261
rtibia 44.4743
rfoot 20.2463 3.34234
rtoes 59.1863
lfemur -45.9673 -10.0635 -21.6484
ltibia 37.3577
lfoot -31.3661 20.0226
ltoes -38.3564
89
root 1.31988 16.0146 -30.1868 35.1297 31.325 4.17862
lowerback 9.28664 -5.19424 11.1801
upperback -2.93852 -4.61069 9.60422
thorax -8.55845 -2.46992 4.93808
lowerneck -15.7273 -6.91875 -2.84891
upperneck 22.5088 -10.7022 7.30046
head 10.3708 -4.28793 1.57769
rclavicle 1.59028e-015 -2.22639e-014
rhumerus 39.6217 -10.0593 -28.0383
rradius 36.2262
rwrist -17.8948
rhand -5.18209 9.16311
rfingers 7.12502
rthumb 20.6185 -19.7618
lclavicle 1.59028e-015 -2.22639e-014
lhumerus 80.5848 2.2896 37.5879
lradius 25.0336
lwrist -26.9549
lhand -5.88824 19.127
lfingers 7.12502
lthumb 19.9398 48.124
rfemur -111.105 -39.4964 91.1985
rtibia 44.9441
rfoot 19.348 6.49309
rtoes 58.7895
lfemur -41.6026 -8.48844 -23.3637
ltibia 36.9611
lfoot -31.6073 17.7679
ltoes -42.1231
90
root 1.32439 15.97 -30.1502 36.9028 31.8213 4.59864
lowerback 8.6246 -5.21636 11.8176
upperback -3.44585 -4.56301 10.0712
thorax -8.76577 -2.47327 5.09339
lowerneck -14.0122 -6.90721 -3.04034
upperneck 21.4503 -10.5746 7.42462
head 9.67718 -4.31693 1.72823
rclavicle -3.65764e-014 4.29375e-014
rhumerus 39.2401 -9.57516 -29.4086
rradius 35.422
rwrist -16.9949
rhand -4.80397 8.97493
rfingers 7.12502
rthumb 20.9817 -19.9102
lclavicle -3.65764e-014 4.29375e-014
lhumerus 80.3965 1.10525 38.3715
lradius 24.3964
lwrist -28.5494
lhand -6.04658 18.2755
lfingers 7.12502
lthumb 19.7876 47.2883
rfemur -112.82 -38.1752 93.0194
rtibia 45.0057
rfoot 18.8363 8.89113
rtoes 58.2596
lfemur -43.3618 -9.16263 -23.1179
ltibia 37.0079
lfoot -31.2528 18.1257
ltoes -42.1007
91
root 1.31504 15.9602 -30.0519 37.0351 32.6012 5.17525
lowerback 9.47032 -5.45361 12.4047
upperback -2.87276 -4.64408 10.5901
thorax -8.64224 -2.49937 5.41219
lowerneck -15.8356 -7.07695 -3.07515
upperneck 21.6259 -10.6956 6.97742
head 10.0632 -4.36694 1.50187
rclavicle 3.49861e-014 1.38354e-013
rhumerus 40.3317 -10.9935 -31.7347
rradius 33.4734
rwrist -14.8869
rhand -4.82784 9.4145
rfingers 7.12502
rthumb 20.9588 -19.4731
lclavicle 3.49861e-014 1.38354e-013
lhumerus 80.9037 0.854923 38.3046
lradius 24.0437
lwrist -29.1914
lhand -6.02373 17.9635
lfingers 7.12502
lthumb 19.8095 46.974
rfemur -114.066 -39.0187 94.5026
rtibia 45.4801
rfoot 17.6259 11.2573
rtoes 57.769
lfemur -42.5455 -9.2025 -23.2453
ltibia 36.4681
lfoot -31.0468 17.4834
ltoes -41.7284
92
root 1.31468 15.9236 -30.0044 38.6544 32.9927 5.51323
lowerback 9.12642 -5.35169 13.3566
upperback -2.89237 -4.39005 11.0787
thorax -8.51922 -2.39974 5.37521
lowerneck -16.0638 -7.30181 -3.45158
upperneck 20.7541 -10.8629 7.10608
head 9.83512 -4.482 1.57806
rclavicle -7.79236e-014 5.56597e-014
rhumerus 40.9519 -12.0137 -33.6785
rradius 31.9097
rwrist -13.3565
rhand -4.94988 9.82533
rfingers 7.12502
rthumb 20.8416 -19.0752
lclavicle -7.79236e-014 5.56597e-014
lhumerus 81.0278 0.147956 40.1477
lradius 23.7758
lwrist -31.6739
lhand -5.77743 17.516
lfingers 7.12502
lthumb 20.0463 46.5019
rfemur -115.434 -37.7458 96.1212
rtibia 45.5435
rfoot 16.9066 13.3449
rtoes 57.3925
lfemur -44.1287 -9.98533 -22.8145
ltibia 36.4975
lfoot -31.0073 17.5703
ltoes -40.6724
93
root 1.31019 15.9358 -29.8401 38.6355 33.7338 6.03771
lowerback 9.49772 -5.37118 14.3329
upperback -1.72418 -4.33072 11.4681
thorax -7.48975 -2.34266 5.19701
lowerneck -19.8204 -7.85986 -3.37175
upperneck 20.9935 -11.6041 6.97349
head 10.6534 -4.71311 1.27575
rclavicle 4.29375e-014 9.70069e-014
rhumerus 41.5817 -14.1216 -35.0908
rradius 30.7741
rwrist -12.5669
rhand -5.22611 9.92037
rfingers 7.12502
rthumb 20.5762 -19.0091
lclavicle 4.29375e-014 9.70069e-014
lhumerus 82.5471 0.116723 40.1299
lradius 23.56
lwrist -32.6351
lhand -6.15151 17.5658
lfingers 7.12502
lthumb 19.6867 46.589
rfemur -116.386 -38.9139 97.5115
rtibia 45.77
rfoot 15.9608 15.5772
rtoes 56.8989
lfemur -43.1062 -9.22948 -23.1319
ltibia 36.3519
lfoot -30.9697 16.2653
ltoes -40.1109
94
root 1.30641 15.9154 -29.7598 39.4944 34.0429 6.52718
lowerback 9.92506 -5.15832 14.9532
upperback -1.21546 -3.87848 12.053
thorax -7.17418 -2.1017 5.44216
lowerneck -21.7685 -8.32224 -3.51545
upperneck 20.6012 -12.0849 6.775
head 10.8918 -4.92379 1.08345
rclavicle 3.65764e-014 -9.54166e-015
rhumerus 42.051 -15.7827 -36.4723
rradius 29.663
rwrist -11.4392
rhand -5.54678 10.3259
rfingers 7.12502
rthumb 20.268 -18.6367
lclavicle 3.65764e-014 -9.54166e-015
lhumerus 83.1985 0.529135 31.0812
lradius 25.9406
lwrist -24.7888
lhand -5.58185 20.167
lfingers 7.12502
lthumb 20.2343 49.133
rfemur -117.373 -38.5742 98.7177
rtibia 45.7889
rfoot 14.9669 17.1334
rtoes 56.7021
lfemur -43.5858 -9.68133 -23.04
ltibia 36.4055
lfoot -30.843 16.3731
ltoes -40.7727
95
root 1.3107 15.874 -29.745 40.8644 34.1843 7.13567
lowerback 10.7293 -5.04093 15.9864
upperback -1.33871 -3.30323 12.3955
thorax -7.82639 -1.86323 5.29068
lowerneck -22.295 -8.5892 -3.58941
upperneck 19.9616 -12.3369 6.67525
head 10.763 -5.06476 1.0047
rclavicle 4.77083e-014 -5.56597e-014
rhumerus 42.1636 -16.7927 -38.1154
rradius 28.5843
rwrist -10.2184
rhand -5.77136 10.4557
rfingers 7.12502
rthumb 20.0521 -18.5296
lclavicle 4.77083e-014 -5.56597e-014
lhumerus 83.8625 -0.526367 39.1006
lradius 24.0037
lwrist -33.7309
lhand -6.79971 17.9077
lfingers 7.12502
lthumb 19.0634 46.9935
rfemur -118.566 -37.5197 99.8558
rtibia 45.768
rfoot 14.6175 18.2318
rtoes 56.9462
lfemur -44.8279 -11.1227 -22.7413
ltibia 36.4195
lfoot -30.5982 17.4129
ltoes -41.6919
96
root 1.32566 15.8752 -29.641 41.2539 35.1981 7.14269
lowerback 11.2181 -5.25649 17.7433
upperback -1.43892 -3.09276 12.9189
thorax -8.32506 -1.8195 5.02042
lowerneck -21.9118 -8.69294 -3.43708
upperneck 19.6107 -12.399 6.26476
head 10.5245 -5.15602 0.846708
rclavicle 2.8625e-014 4.77083e-015
rhumerus 41.9582 -16.9958 -39.2766
rradius 27.5686
rwrist -9.51942
rhand -6.07895 9.9294
rfingers 7.12502
rthumb 19.7565 -19.0866
lclavicle 2.8625e-014 4.77083e-015
lhumerus 83.8964 -1.49681 39.0146
lradius 24.0737
lwrist -34.4961
lhand -7.36516 18.3732
lfingers 7.12502
lthumb 18.5196 47.5117
rfemur -119.656 -37.7881 101.935
rtibia 45.709
rfoot 14.2086 19.5862
rtoes 57.0522
lfemur -44.991 -11.3335 -22.0787
ltibia 36.486
lfoot -30.581 16.8941
ltoes -42.1137
97
root 1.32876 15.865 -29.5158 41.9268 35.4122 7.19024
lowerback 11.2625 -5.1454 18.6037
upperback -1.37061 -2.74624 13.4421
thorax -8.29577 -1.66287 5.11559
lowerneck -21.844 -8.88212 -3.34638
upperneck 19.8008 -12.554 5.6726
head 10.5348 -5.28579 0.602098
rclavicle 6.99722e-014 -1.90833e-014
rhumerus 42.0375 -17.1889 -39.9662
rradius 26.5788
rwrist -9.08163
rhand -6.37502 9.65864
rfingers 7.12502
rthumb 19.4718 -19.3864
lclavicle 6.99722e-014 -1.90833e-014
lhumerus 83.5596 -2.72803 38.8951
lradius 23.9886
lwrist -35.2193
lhand -6.96429 16.7264
lfingers 7.12502
lthumb 18.9052 45.8276
rfemur -120.066 -37.591 103.018
rtibia 45.6366
rfoot 14.0725 20.703
rtoes 57.4618
lfemur -45.4258 -11.4056 -21.6317
ltibia 36.5408
lfoot -30.5502 16.4787
ltoes -41.6571
